<svg width="91" height="37" viewBox="0 0 91 37" fill="none" xmlns="http://www.w3.org/2000/svg">
<path fill-rule="evenodd" clip-rule="evenodd" d="M37.1635 21.2718H33.3396V19.7713C33.3396 17.8196 34.4546 17.2611 35.4165 17.2611C36.4779 17.2611 37.3046 17.7321 37.3046 17.7321L38.6065 14.7569C38.6065 14.7569 37.2868 13.8943 34.8879 13.8943C32.1909 13.8943 29.1222 15.4147 29.1222 20.1867V21.2718H22.7205V19.7713C22.7205 17.8196 23.8355 17.2611 24.7954 17.2611C25.342 17.2611 26.0774 17.3883 26.6855 17.7321L27.9873 14.7569C27.2102 14.2997 25.9621 13.8943 24.2687 13.8943C21.5717 13.8943 18.5031 15.4147 18.5031 20.1867V21.2718H16.0545V24.5273H18.5031V36.0289H22.7205V24.5273H29.1222V36.0289H33.3396V24.5273H37.1635V21.2718ZM6.37202 33.3811C5.263 33.3811 4.71048 32.8365 4.71048 31.9362C4.71048 30.2707 6.57474 29.7003 9.97732 29.3406C9.97732 31.5685 8.4708 33.3811 6.37202 33.3811ZM7.83878 20.8381C5.40809 20.8381 2.60971 21.9849 1.09127 23.1953L2.47854 26.1149C3.69687 24.9999 5.66646 24.0479 7.44327 24.0479C9.13065 24.0479 10.0628 24.6123 10.0628 25.7472C10.0628 26.5144 9.44467 26.8999 8.27603 27.051C3.91549 27.6194 0.493042 28.8218 0.493042 32.1846C0.493042 34.8499 2.39109 36.4637 5.35642 36.4637C7.4711 36.4637 9.35523 35.2871 10.2516 33.7349V36.0284H14.1948V26.419C14.1948 22.45 11.4361 20.8381 7.83878 20.8381ZM47.4376 21.2718V36.0289H51.659V28.9196C51.659 25.5389 53.7042 24.5472 55.1312 24.5472C55.6877 24.5472 56.4389 24.7082 56.9358 25.0798L57.705 21.1784C57.0531 20.9001 56.3714 20.8385 55.8129 20.8385C53.6425 20.8385 52.2791 21.8005 51.3788 23.7522V21.2718H47.4376ZM72.5042 23.4306C73.3727 22.1586 75.0402 20.8389 77.2721 20.8389C79.9692 20.8389 82.2011 22.5123 82.2011 25.8294V36.0292H77.9837V27.163C77.9837 25.2094 76.8071 24.3985 75.6921 24.3985C74.2969 24.3985 72.9017 25.6744 72.9017 28.433V36.0292H68.6842V27.1929C68.6842 25.1795 67.5752 24.3985 66.3688 24.3985C65.0352 24.3985 63.6082 25.7042 63.6082 28.433V36.0292H59.3848V21.2721H63.4532V23.5041C64.1667 22.0791 65.711 20.8389 67.9429 20.8389C69.988 20.8389 71.6973 21.7869 72.5042 23.4306ZM43.8951 36.0295H39.6816V21.2724H43.8951V36.0295Z" fill="#060809"/>
<path fill-rule="evenodd" clip-rule="evenodd" d="M64.2632 0.688721C52.871 0.688721 42.7169 8.59692 39.8351 18.7649H43.9651C46.3719 11.1926 54.5425 4.54643 64.2632 4.54643C76.0788 4.54643 86.2905 13.5418 86.2905 27.5456C86.2905 30.6898 85.8831 33.5239 85.1119 36.0282H89.1187L89.1585 35.891C89.8143 33.3073 90.1482 30.501 90.1482 27.5456C90.1482 11.9279 78.7679 0.688721 64.2632 0.688721Z" fill="#0FA0EA"/>
</svg>
