<svg width="56" height="56" viewBox="0 0 56 56" fill="none" xmlns="http://www.w3.org/2000/svg">
<path fill-rule="evenodd" clip-rule="evenodd" d="M55.4585 28.1543C55.4585 43.2659 43.2081 55.5164 28.0964 55.5164C12.9848 55.5164 0.734375 43.2659 0.734375 28.1543C0.734375 13.0426 12.9848 0.792236 28.0964 0.792236C43.2081 0.792236 55.4585 13.0426 55.4585 28.1543ZM34.6701 17.9883C38.4763 19.2954 41.2605 21.2525 40.7143 24.8947C40.3175 27.5618 38.8335 28.8517 36.8617 29.3034C39.5669 30.7062 40.4889 33.3686 39.6322 36.5878C38.0056 41.2206 34.1394 41.6107 28.9969 40.6424L27.7482 45.6224L24.7339 44.8731L25.9654 39.9598C25.1839 39.7665 24.3852 39.5594 23.5625 39.3388L22.3258 44.276L19.3149 43.5267L20.5619 38.5364L14.4902 37.0104L15.9879 33.5718C15.9879 33.5718 18.2105 34.1585 18.1796 34.1158C19.0332 34.3262 19.4128 33.7719 19.5622 33.4041L22.9459 19.8873C22.9837 19.2492 22.7621 18.4451 21.5409 18.1406C21.5873 18.1081 19.351 17.5983 19.351 17.5983L20.1531 14.3906L26.2333 15.8909L27.47 10.9571L30.4826 11.7064L29.2717 16.5427C30.0824 16.7258 30.8966 16.9123 31.6884 17.109L32.8907 12.3034L35.905 13.0528L34.6701 17.9883ZM27.4574 26.2186C29.5107 26.763 33.9789 27.9476 34.7576 24.8417C35.5522 21.6639 31.2112 20.7042 29.0858 20.2343L29.0857 20.2343L29.085 20.2341C28.8445 20.1809 28.6323 20.134 28.4593 20.0909L26.9581 26.0888C27.101 26.1242 27.269 26.1687 27.4572 26.2186L27.4574 26.2186ZM25.1308 35.8756C27.5902 36.5234 32.969 37.9402 33.8249 34.5178C34.7009 31.0184 29.4858 29.8529 26.9412 29.2841C26.6569 29.2206 26.406 29.1645 26.2006 29.1134L24.5448 35.7239C24.7131 35.7655 24.9102 35.8175 25.1308 35.8756Z" fill="#F7931A"/>
</svg>
