<svg width="38" height="41" viewBox="0 0 38 41" fill="none" xmlns="http://www.w3.org/2000/svg">
<path d="M17.1765 1.51946C17.7645 1.10212 18.4677 0.87793 19.1888 0.87793C19.9099 0.87793 20.6131 1.10212 21.2012 1.51946L36.4653 12.3494C38.3616 13.6953 37.4122 16.6845 35.0881 16.6897H3.29736C0.965477 16.6897 0.0108148 13.6979 1.91492 12.3494L17.1765 1.51946ZM19.1901 11.1469C19.7667 11.1469 20.3197 10.9179 20.7274 10.5102C21.1351 10.1024 21.3642 9.54946 21.3642 8.97286C21.3642 8.39626 21.1351 7.84328 20.7274 7.43556C20.3197 7.02784 19.7667 6.79879 19.1901 6.79879C18.6135 6.79879 18.0605 7.02784 17.6528 7.43556C17.2451 7.84328 17.0161 8.39626 17.0161 8.97286C17.0161 9.54946 17.2451 10.1024 17.6528 10.5102C18.0605 10.9179 18.6135 11.1469 19.1901 11.1469ZM4.84412 19.3007V29.7341H10.0608V19.3007H4.84412ZM0.931568 37.9922C0.931568 34.87 3.46168 32.3399 6.58129 32.3399H31.7964C33.2952 32.3406 34.7325 32.9363 35.7924 33.9962C36.8523 35.0561 37.448 36.4934 37.4487 37.9922V38.8608C37.4487 39.2067 37.3113 39.5384 37.0667 39.783C36.8221 40.0276 36.4904 40.165 36.1445 40.165H2.23575C1.88986 40.165 1.55814 40.0276 1.31355 39.783C1.06897 39.5384 0.931568 39.2067 0.931568 38.8608V37.9922ZM33.5361 19.2981V29.7315H28.3194V19.3007H33.5361V19.2981ZM25.711 19.2981V29.7315H20.4943V19.3007H25.711V19.2981ZM17.8859 19.2981V29.7315H12.6692V19.3007H17.8859V19.2981Z" fill="#6A6A83"/>
</svg>
