<svg width="46" height="36" viewBox="0 0 46 36" fill="none" xmlns="http://www.w3.org/2000/svg">
<path d="M40.1517 0.0209961C42.8861 0.0209961 45.1517 2.28662 45.1517 5.021V7.521H0.151733V5.021C0.151733 2.28662 2.33923 0.0209961 5.15173 0.0209961H40.1517ZM45.1517 30.021C45.1517 32.8335 42.8861 35.021 40.1517 35.021H5.15173C2.33923 35.021 0.151733 32.8335 0.151733 30.021V15.021H45.1517V30.021ZM8.90173 25.021C8.19861 25.021 7.65173 25.646 7.65173 26.271C7.65173 26.9741 8.19861 27.521 8.90173 27.521H13.9017C14.5267 27.521 15.1517 26.9741 15.1517 26.271C15.1517 25.646 14.5267 25.021 13.9017 25.021H8.90173ZM18.9017 27.521H28.9017C29.5267 27.521 30.1517 26.9741 30.1517 26.271C30.1517 25.646 29.5267 25.021 28.9017 25.021H18.9017C18.1986 25.021 17.6517 25.646 17.6517 26.271C17.6517 26.9741 18.1986 27.521 18.9017 27.521Z" fill="#2B68DE"/>
</svg>
