<svg width="72" height="40" viewBox="0 0 72 40" fill="none" xmlns="http://www.w3.org/2000/svg">
<path d="M45.2901 3.25058C44.5514 3.88743 43.8356 4.54338 43.0586 5.24009C44.0203 5.47318 44.0164 5.46936 43.5197 6.23612C41.7747 8.92617 39.3165 10.7285 36.4061 11.9741C33.5963 13.1778 30.6184 13.7229 27.6176 14.2018C26.4636 14.3865 26.1006 14.384 25.9745 13.7267C25.5355 13.7446 25.0961 13.7675 24.6562 13.7955V14.4617C25.0294 16.1175 25.5478 17.7185 26.4649 19.1603C27.6265 21.0042 29.3117 22.4597 31.3049 23.3406C31.6425 22.998 31.9609 22.635 32.0603 22.1866C32.0686 22.151 32.0797 22.1161 32.0934 22.0822L31.9851 22.0236C32.1571 21.8771 32.2793 21.7689 32.4118 21.6619C35.5566 19.2902 38.1689 16.4155 40.3953 13.1829C41.9008 10.9736 43.2413 8.65643 44.4062 6.25014C44.5119 6.03488 44.5489 5.44771 45.0494 5.9712C45.1972 6.12531 45.3169 5.93808 45.3424 5.78269C45.4697 5.01083 45.5971 4.23769 45.685 3.46074C45.7207 3.17034 45.5207 3.05443 45.2901 3.25058Z" fill="#2B68DE"/>
<path d="M46.4403 7.82713C47.4796 10.2606 47.6273 12.9827 46.8573 15.5143C46.0874 18.0459 44.4492 20.2248 42.231 21.6676C40.0128 23.1104 37.3569 23.7246 34.7305 23.402C32.1041 23.0795 29.6756 21.841 27.8725 19.9044C26.0693 17.9677 25.007 15.4572 24.8725 12.8145C24.7379 10.1718 25.5398 7.56636 27.137 5.45666C28.7342 3.34696 31.0244 1.86822 33.6044 1.28067C36.1845 0.693125 38.8891 1.03443 41.2423 2.24451" stroke="#2B68DE" stroke-width="1.78318" stroke-miterlimit="10" stroke-linecap="round"/>
<path d="M54.7712 36.1815C54.7712 35.3484 54.791 34.5152 54.7642 33.6844C54.7491 33.2015 54.9562 33.0944 55.3949 33.1177C55.8021 33.1398 56.1768 33.0805 56.1698 33.6832C56.1512 35.327 56.1512 36.9716 56.1698 38.617C56.1698 39.1429 55.8929 39.2058 55.4647 39.1988C55.0365 39.1918 54.7491 39.1592 54.7665 38.617C54.7979 37.8024 54.7747 36.9879 54.7747 36.1734L54.7712 36.1815Z" fill="#2B68DE"/>
<path d="M18.1814 33.1628C19.1143 33.1628 20.0472 33.1445 20.9801 33.1628C21.9416 33.1868 22.376 33.6053 22.5338 34.5622C22.6189 35.0111 22.6496 35.4686 22.6252 35.9249C22.5875 36.4234 22.4034 36.867 21.9782 37.1391C21.6169 37.3677 21.5883 37.5964 21.8227 37.9222C21.937 38.0891 21.9976 38.2983 22.1028 38.4755C22.3474 38.8917 22.1817 39.2163 21.6889 39.1981C21.2316 39.1809 20.8601 39.0094 20.6508 38.5384C20.1935 37.5095 19.8117 37.3368 18.6764 37.4397C18.0922 37.4935 17.4989 37.458 16.9101 37.4637C16.0995 37.4729 16.0527 37.5209 16.0355 38.3463C16.0218 39.0323 15.9121 39.126 15.2958 39.1283C14.8157 39.1283 14.6282 38.8734 14.6648 38.4504C14.713 37.6723 14.7195 36.8923 14.6842 36.1136C14.6842 35.87 14.6122 35.4871 15.0077 35.5236C15.3599 35.5556 15.9475 35.1315 16.0195 35.9215C16.0481 36.2439 16.2745 36.2942 16.55 36.293C17.8076 36.2873 19.0651 36.293 20.3227 36.2873C20.9652 36.2873 21.2293 35.9901 21.2373 35.3236C21.2453 34.657 20.9629 34.2855 20.3227 34.2741C19.1623 34.2512 17.9996 34.2649 16.8392 34.2649C16.3053 34.2649 15.7726 34.2649 15.2387 34.2649C14.8351 34.2649 14.6419 34.0866 14.6499 33.6773C14.6579 33.268 14.8705 33.1114 15.265 33.1148C16.2356 33.1239 17.2085 33.1148 18.1768 33.1148L18.1814 33.1628Z" fill="#2B68DE"/>
<path d="M42.3376 36.0526C42.3376 35.2195 42.3574 34.3863 42.3306 33.5555C42.3155 33.0726 42.5226 32.9655 42.9613 32.9888C43.3686 33.0109 43.7432 32.9516 43.7363 33.5543C43.7176 35.1981 43.7176 36.8427 43.7363 38.4881C43.7363 39.014 43.4593 39.0769 43.0311 39.0699C42.6029 39.0629 42.3155 39.0303 42.3329 38.4881C42.3643 37.6735 42.3411 36.859 42.3411 36.0445L42.3376 36.0526Z" fill="#2B68DE"/>
<path d="M47.2527 33.1619C46.3198 33.1436 45.3869 33.1619 44.454 33.1619H44.1075H43.1118V34.264C44.2722 34.264 45.4349 34.2503 46.5953 34.2732C47.2356 34.2846 47.5179 34.6562 47.5099 35.3227C47.5019 35.9892 47.566 37.9213 46.9235 37.9213H43.3754L42.936 38.2168L42.9348 38.8391C43.3777 38.8391 43.5782 39.0039 45.4436 39.0039C48.1524 39.0039 48.3885 38.6964 48.6832 37.9213C48.8979 37.3567 48.8601 36.4225 48.8978 35.924C48.9223 35.4678 48.8915 35.0102 48.8064 34.5613C48.6486 33.6044 48.2142 33.1859 47.2527 33.1619Z" fill="#2B68DE"/>
<path d="M2.46131 38.9964C3.3942 39.0147 4.3271 38.9964 5.26 38.9964L5.60649 38.9964C6.57483 38.9964 7.20582 39.0352 8.17644 39.0444C8.57086 39.0478 8.78351 38.8912 8.79151 38.4819C8.79951 38.0726 8.6063 37.8943 8.20273 37.8943L6.60218 37.8943C5.44177 37.8943 4.27908 37.908 3.11868 37.8851C2.47846 37.8737 2.19607 37.5021 2.20408 36.8356C2.21208 36.1691 2.14806 34.237 2.79056 34.237L8.17644 34.237C8.17644 34.237 8.43061 34.1695 8.53494 34.0512C8.8143 33.7346 8.53494 33.1544 7.93095 33.1544L4.27039 33.1544C1.56158 33.1544 1.32553 33.4619 1.0308 34.237C0.816115 34.8016 0.853897 35.7358 0.81617 36.2343C0.791762 36.6905 0.822469 37.1481 0.907629 37.597C1.0654 38.5539 1.49983 38.9724 2.46131 38.9964Z" fill="#2B68DE"/>
<path d="M32.5785 33.1164C33.63 33.1164 34.6814 33.1164 35.7329 33.1164C36.1098 33.1164 36.444 33.2101 36.4155 33.6625C36.389 34.0558 36.1302 34.2106 35.7186 34.2066C34.1251 34.1903 32.5296 34.2066 30.9362 34.2066C30.4614 34.2066 29.9173 34.1271 29.8888 34.8342C29.8623 35.637 30.4818 35.5148 30.9729 35.5168C32.2586 35.5168 33.5444 35.5066 34.8322 35.4923C35.2398 35.4923 35.6147 35.5372 35.6228 36.0466C35.633 36.6049 35.2663 36.6579 34.8078 36.6579C33.4527 36.6273 32.0956 36.6579 30.7324 36.6192C30.2067 36.609 29.8623 36.7272 29.8807 37.3263C29.899 37.8948 30.2087 38.0557 30.7467 38.0476C32.3768 38.0211 34.007 38.0313 35.6371 38.0354C35.9998 38.0354 36.4522 37.9518 36.4726 38.5102C36.4909 39.1215 36.0365 39.0461 35.6147 39.0603C33.8195 39.1255 32.0223 38.987 30.2271 39.1785C29.0167 39.3089 28.5032 38.824 28.491 37.6258C28.4808 36.3726 28.5541 35.1195 28.5704 33.8663C28.5704 33.2692 28.9372 33.1246 29.4324 33.1225C30.4757 33.1123 31.5271 33.1144 32.5785 33.1164Z" fill="#2B68DE"/>
<path d="M66.7775 33.118H70.535C70.9038 33.118 71.2095 33.1689 71.1911 33.66C71.1728 34.1511 70.9018 34.202 70.5167 34.2122C69.8748 34.2305 69.235 34.2794 68.5931 34.3121C67.6619 34.363 67.291 34.9234 67.2849 35.7833C67.2849 36.5983 67.2686 37.4134 67.2849 38.2285C67.2849 38.6849 67.1871 39.0558 66.6471 39.07C66.0582 39.0863 65.9176 38.7012 65.9217 38.1999C65.9217 37.2198 65.9095 36.2377 65.938 35.2575C65.9604 34.4873 65.6649 34.1388 64.858 34.1979C64.1509 34.2509 63.4316 34.2122 62.7266 34.1979C62.3517 34.1979 62.0338 34.0757 62.0277 33.6437C62.0216 33.2117 62.3618 33.0894 62.7246 33.0874C64.0796 33.0874 65.4326 33.0874 66.7857 33.0874L66.7775 33.118Z" fill="#2B68DE"/>
</svg>
