<svg width="38" height="47" viewBox="0 0 38 47" fill="none" xmlns="http://www.w3.org/2000/svg">
<path fill-rule="evenodd" clip-rule="evenodd" d="M11.0937 44.6132L11.8548 39.6163L10.1593 39.5754H2.06299L7.68965 2.70085C7.70718 2.58919 7.76385 2.48553 7.8466 2.4118C7.92977 2.33806 8.03576 2.29761 8.14665 2.29761H21.7983C26.3308 2.29761 29.4584 3.27222 31.0911 5.19615C31.8567 6.09871 32.3443 7.04213 32.5804 8.07995C32.8278 9.16916 32.8319 10.4703 32.5905 12.0576L32.573 12.173V13.1902L33.3386 13.6385C33.9831 13.9921 34.4956 14.3966 34.8886 14.8596C35.5433 15.6316 35.9669 16.6125 36.1458 17.775C36.3309 18.9709 36.2698 20.3942 35.9669 22.0055C35.6175 23.8587 35.0529 25.4729 34.2901 26.7934C33.5889 28.0103 32.6953 29.0199 31.6342 29.802C30.6211 30.5452 29.4177 31.1094 28.0569 31.4705C26.738 31.8253 25.2345 32.0044 23.5855 32.0044H22.5231C21.7636 32.0044 21.0258 32.2871 20.4465 32.794C19.8655 33.3115 19.4815 34.0185 19.3637 34.7917L19.2834 35.2417L17.9385 44.0494L17.8777 44.3726C17.8614 44.475 17.8337 44.526 17.7929 44.5605C17.7567 44.5921 17.7045 44.6132 17.6535 44.6132H11.0937Z" fill="#28356A"/>
<path fill-rule="evenodd" clip-rule="evenodd" d="M34.0642 12.291C34.0239 12.5603 33.977 12.8354 33.9248 13.1181C32.1246 22.6721 25.9651 25.9726 18.0987 25.9726H14.0933C13.1312 25.9726 12.3203 26.6944 12.1707 27.6753L9.53921 44.9279C9.44177 45.5722 9.92201 46.1524 10.5506 46.1524H17.6547C18.4957 46.1524 19.2104 45.5208 19.3429 44.6633L19.4126 44.2904L20.7501 35.5173L20.8362 35.0361C20.967 34.1757 21.6833 33.5436 22.5243 33.5436H23.5867C30.4694 33.5436 35.8576 30.6556 37.4324 22.2975C38.09 18.8061 37.7496 15.8907 36.0088 13.8404C35.4821 13.2222 34.8286 12.709 34.0642 12.291Z" fill="#298FC2"/>
<path fill-rule="evenodd" clip-rule="evenodd" d="M32.1799 11.5153C31.9048 11.4323 31.621 11.3573 31.3299 11.2894C31.0372 11.2233 30.7376 11.1647 30.429 11.1133C29.3491 10.9329 28.1656 10.8474 26.8982 10.8474H16.198C15.9343 10.8474 15.684 10.9089 15.4601 11.0202C14.9665 11.2654 14.6 11.7483 14.5111 12.3395L12.2347 27.2413L12.1694 27.6757C12.319 26.6948 13.1299 25.973 14.092 25.973H18.0974C25.9638 25.973 32.1233 22.6708 33.9235 13.1185C33.9773 12.8358 34.0226 12.5607 34.063 12.2914C33.6076 12.0415 33.1143 11.8279 32.5831 11.6459C32.4518 11.6008 32.3165 11.5574 32.1799 11.5153Z" fill="#22284F"/>
<path fill-rule="evenodd" clip-rule="evenodd" d="M14.5119 12.3391C14.6007 11.7479 14.9672 11.265 15.4609 11.0215C15.6864 10.9098 15.935 10.8483 16.1988 10.8483H26.8989C28.1664 10.8483 29.3498 10.9343 30.4298 11.1146C30.7384 11.1656 31.038 11.2246 31.3307 11.2907C31.6218 11.3582 31.9055 11.4336 32.1807 11.5162C32.3173 11.5583 32.4526 11.6021 32.5851 11.6455C33.1163 11.8276 33.61 12.0429 34.0654 12.2911C34.601 8.76048 34.0609 6.35661 32.2141 4.17986C30.1778 1.78316 26.5031 0.757568 21.8006 0.757568H8.14855C7.18808 0.757568 6.36866 1.47936 6.22027 2.46197L0.534084 39.7158C0.421974 40.4527 0.971921 41.1176 1.69105 41.1176H10.1192L14.5119 12.3391Z" fill="#28356A"/>
</svg>
