<svg width="128" height="128" viewBox="0 0 128 128" fill="none" xmlns="http://www.w3.org/2000/svg">
<path d="M0 63.9993C0 28.7493 28.5 -0.000732422 64 -0.000732422C99.25 -0.000732422 128 28.7493 128 63.9993C128 99.4993 99.25 127.999 64 127.999C28.5 127.999 0 99.4993 0 63.9993ZM92.75 52.9993C95.5 50.2493 95.5 45.9993 92.75 43.2493C90 40.4993 85.75 40.4993 83 43.2493L56 70.2493L44.75 59.2493C42 56.4993 37.75 56.4993 35 59.2493C32.25 61.9993 32.25 66.2493 35 68.9993L51 84.9993C53.75 87.7493 58 87.7493 60.75 84.9993L92.75 52.9993Z" fill="#22C55E"/>
</svg>
