<svg width="133" height="92" viewBox="0 0 133 92" fill="none" xmlns="http://www.w3.org/2000/svg">
<g opacity="0.682633">
<path d="M122.995 12.233C120.581 12.233 118.39 13.1819 116.77 14.7249C116.476 6.69028 109.874 0.265625 101.768 0.265625C94.4409 0.265625 88.3436 5.51462 87.0211 12.4564C86.3796 12.3118 85.7134 12.233 85.0286 12.233C80.04 12.233 75.9963 16.2771 75.9963 21.2653C75.9963 21.3737 76.0004 21.4814 76.0044 21.589C75.4865 21.3822 74.9231 21.2653 74.3316 21.2653C71.8375 21.2653 69.8154 23.2874 69.8154 25.7819C69.8154 28.276 71.8375 30.298 74.3316 30.298H122.995C127.984 30.298 132.028 26.2539 132.028 21.2653C132.028 16.2771 127.984 12.233 122.995 12.233Z" fill="#E0E0E0"/>
</g>
<path d="M12.6586 22.0855L111.065 38.4139L49.8957 78.3249L31.8979 51.1279L107.263 38.7705L25.0081 41.4047L12.6586 22.0855Z" fill="#2B68DE"/>
<path d="M21.3309 63.3855L25.0095 41.4034L107.264 38.7688L31.8994 51.1262L21.3309 63.3855Z" fill="#2B68DE"/>
<path d="M37.2112 59.1553L21.3306 63.3872L31.8987 51.1281L37.2112 59.1553Z" fill="#0C41A3"/>
</svg>
